# Blender v2.93.5 OBJ File: 'BADEDWIRE.blend'
# www.blender.org
mtllib wire.mtl
o tela.000
v 0.374531 -0.338270 -0.135256
v -0.374531 -0.338270 -0.135256
v -0.374531 0.340611 0.181312
v 0.374531 0.340611 0.181312
v 0.374531 -0.338270 -0.135256
v 0.374531 0.340611 0.181312
v -0.374531 -0.338270 -0.135256
v -0.374531 0.340611 0.181312
v 0.411984 -0.424274 -0.219805
v 0.318352 -0.424274 -0.219805
v 0.318352 0.424328 0.175905
v 0.411984 0.424328 0.175905
v 0.411984 -0.463845 -0.134944
v 0.411984 0.384757 0.260765
v 0.318352 -0.463845 -0.134944
v 0.318352 0.384757 0.260765
v 0.411984 -0.462452 0.095621
v 0.318352 -0.462452 0.095621
v 0.318352 0.399442 -0.270232
v 0.411984 0.399442 -0.270232
v 0.411984 -0.425867 0.181810
v 0.411984 0.436027 -0.184043
v 0.318352 -0.425867 0.181810
v 0.318352 0.436027 -0.184043
v -0.299625 -0.464471 0.096298
v -0.393258 -0.464471 0.096298
v -0.393258 0.390907 -0.284541
v -0.299625 0.390907 -0.284541
v -0.299625 -0.426387 0.181836
v -0.299625 0.428991 -0.199003
v -0.393258 -0.426387 0.181836
v -0.393258 0.428991 -0.199003
v -0.299625 -0.424274 -0.219805
v -0.393258 -0.424274 -0.219805
v -0.393258 0.424328 0.175905
v -0.299625 0.424328 0.175905
v -0.299625 -0.463845 -0.134944
v -0.299625 0.384757 0.260765
v -0.393258 -0.463845 -0.134944
v -0.393258 0.384757 0.260765
v 0.374531 -0.338270 0.123816
v -0.374531 -0.338270 0.123816
v -0.374531 0.340611 -0.192751
v 0.374531 0.340611 -0.192751
v 0.374531 -0.338270 0.123816
v 0.374531 0.340611 -0.192751
v -0.374531 -0.338270 0.123816
v -0.374531 0.340611 -0.192751
vt 0.000000 0.875000
vt 0.125000 0.875000
vt 0.125000 1.000000
vt 0.000000 1.000000
vt 0.000000 0.875000
vt 0.000000 1.000000
vt 0.125000 0.875000
vt 0.125000 1.000000
vt 0.000000 0.875000
vt 0.000000 0.875000
vt 0.000000 1.000000
vt 0.000000 1.000000
vt 0.125000 1.000000
vt 0.000000 1.000000
vt 0.000000 1.000000
vt 0.125000 1.000000
vt 0.000000 0.593750
vt 0.015625 0.593750
vt 0.015625 0.750000
vt 0.000000 0.750000
vt 0.250000 0.843750
vt 0.265625 0.843750
vt 0.265625 1.000000
vt 0.250000 1.000000
vt 0.062500 0.593750
vt 0.078125 0.593750
vt 0.078125 0.750000
vt 0.062500 0.750000
vt 0.125000 0.593750
vt 0.140625 0.593750
vt 0.140625 0.750000
vt 0.125000 0.750000
vt 0.140625 0.562500
vt 0.125000 0.562500
vt 0.125000 0.546875
vt 0.140625 0.546875
vt 0.203125 0.546875
vt 0.187500 0.546875
vt 0.187500 0.562500
vt 0.203125 0.562500
vt 0.187500 0.593750
vt 0.203125 0.593750
vt 0.203125 0.750000
vt 0.187500 0.750000
vt 0.250000 0.656250
vt 0.265625 0.656250
vt 0.265625 0.812500
vt 0.250000 0.812500
vt 0.312500 0.843750
vt 0.328125 0.843750
vt 0.328125 1.000000
vt 0.312500 1.000000
vt 0.312500 0.656250
vt 0.328125 0.656250
vt 0.328125 0.812500
vt 0.312500 0.812500
vt 0.453125 0.812500
vt 0.437500 0.812500
vt 0.437500 0.796875
vt 0.453125 0.796875
vt 0.453125 0.734375
vt 0.437500 0.734375
vt 0.437500 0.750000
vt 0.453125 0.750000
vt 0.375000 0.843750
vt 0.390625 0.843750
vt 0.390625 1.000000
vt 0.375000 1.000000
vt 0.375000 0.656250
vt 0.390625 0.656250
vt 0.390625 0.812500
vt 0.375000 0.812500
vt 0.250000 0.468750
vt 0.265625 0.468750
vt 0.265625 0.625000
vt 0.250000 0.625000
vt 0.312500 0.468750
vt 0.328125 0.468750
vt 0.328125 0.625000
vt 0.312500 0.625000
vt 0.453125 0.687500
vt 0.437500 0.687500
vt 0.437500 0.671875
vt 0.453125 0.671875
vt 0.453125 0.609375
vt 0.437500 0.609375
vt 0.437500 0.625000
vt 0.453125 0.625000
vt 0.375000 0.468750
vt 0.390625 0.468750
vt 0.390625 0.625000
vt 0.375000 0.625000
vt 0.000000 0.406250
vt 0.015625 0.406250
vt 0.015625 0.562500
vt 0.000000 0.562500
vt 0.437500 0.843750
vt 0.453125 0.843750
vt 0.453125 1.000000
vt 0.437500 1.000000
vt 0.062500 0.406250
vt 0.078125 0.406250
vt 0.078125 0.562500
vt 0.062500 0.562500
vt 0.453125 0.562500
vt 0.437500 0.562500
vt 0.437500 0.546875
vt 0.453125 0.546875
vt 0.515625 0.984375
vt 0.500000 0.984375
vt 0.500000 1.000000
vt 0.515625 1.000000
vt 0.125000 0.875000
vt 0.000000 0.875000
vt 0.000000 1.000000
vt 0.125000 1.000000
vt 0.000000 0.875000
vt 0.000000 0.875000
vt 0.000000 1.000000
vt 0.000000 1.000000
vt 0.000000 0.875000
vt 0.125000 0.875000
vt 0.125000 1.000000
vt 0.000000 1.000000
vt 0.125000 1.000000
vt 0.125000 1.000000
vt 0.125000 1.000000
vt 0.000000 1.000000
vt 0.000000 1.000000
vt 0.125000 1.000000
vn 0.0000 0.4226 -0.9063
vn 0.0000 0.0000 -0.0000
vn 1.0000 0.0000 -0.0000
vn 0.0000 -0.4226 0.9063
vn -1.0000 -0.0000 -0.0000
vn -0.0000 0.9063 0.4226
vn 0.0000 0.0000 0.4226
vn 0.0000 -0.9063 -0.4226
vn 0.0000 0.0000 -0.4226
vn 0.0000 -0.3907 -0.9205
vn 0.0000 0.3907 0.9205
vn 0.0000 0.9205 -0.3907
vn 0.0000 -0.9205 0.3907
vn 0.0000 -0.4067 -0.9135
vn 0.0000 0.4067 0.9135
vn 0.0000 0.9135 -0.4067
vn 0.0000 -0.9135 0.4067
vn 0.0000 -0.4226 -0.9063
vn 0.0000 0.4226 0.9063
vn -0.0000 0.9063 -0.4226
vn 0.0000 -0.9063 0.4226
usemtl m_ae11c03f-1869-04a9-e052-16a71bd3f9e7
s 1
f 1/1/1 2/2/1 3/3/1 4/4/1
f 5/5/2 1/1/3 4/4/2 6/6/3
f 7/7/4 5/5/4 6/6/4 8/8/4
f 2/9/2 7/10/5 8/11/2 3/12/5
f 8/8/6 6/6/7 4/4/6 3/3/7
f 2/13/8 1/14/9 5/15/8 7/16/9
f 9/17/1 10/18/1 11/19/1 12/20/1
f 13/21/3 9/22/3 12/23/3 14/24/3
f 15/25/4 13/26/4 14/27/4 16/28/4
f 10/29/5 15/30/5 16/31/5 11/32/5
f 16/33/6 14/34/6 12/35/6 11/36/6
f 10/37/8 9/38/8 13/39/8 15/40/8
f 17/41/10 18/42/10 19/43/10 20/44/10
f 21/45/3 17/46/3 20/47/3 22/48/3
f 23/49/11 21/50/11 22/51/11 24/52/11
f 18/53/5 23/54/5 24/55/5 19/56/5
f 24/57/12 22/58/12 20/59/12 19/60/12
f 18/61/13 17/62/13 21/63/13 23/64/13
f 25/65/14 26/66/14 27/67/14 28/68/14
f 29/69/3 25/70/3 28/71/3 30/72/3
f 31/73/15 29/74/15 30/75/15 32/76/15
f 26/77/5 31/78/5 32/79/5 27/80/5
f 32/81/16 30/82/16 28/83/16 27/84/16
f 26/85/17 25/86/17 29/87/17 31/88/17
f 33/89/1 34/90/1 35/91/1 36/92/1
f 37/93/3 33/94/3 36/95/3 38/96/3
f 39/97/4 37/98/4 38/99/4 40/100/4
f 34/101/5 39/102/5 40/103/5 35/104/5
f 40/105/6 38/106/6 36/107/6 35/108/6
f 34/109/8 33/110/8 37/111/8 39/112/8
f 41/113/18 42/114/18 43/115/18 44/116/18
f 45/117/2 41/118/3 44/119/2 46/120/3
f 47/121/19 45/122/19 46/123/19 48/124/19
f 42/114/2 47/121/5 48/124/2 43/115/5
f 48/125/20 46/120/9 44/119/20 43/126/9
f 42/127/21 41/128/7 45/129/21 47/130/7
